<svg height='100px' width='100px'  fill="#ff4d00" xmlns="http://www.w3.org/2000/svg" xmlns:xlink="http://www.w3.org/1999/xlink" version="1.1" x="0px" y="0px" viewBox="0 0 48 48" enable-background="new 0 0 48 48" xml:space="preserve"><path d="M28.4,47.1h-8.9c-0.6,0-1-0.5-1-1v-4.5c-1.1-0.3-2.2-0.8-3.2-1.3l-3.2,3.2c-0.2,0.2-0.4,0.3-0.7,0.3l0,0  c-0.3,0-0.5-0.1-0.7-0.3l-6.3-6.3c-0.4-0.4-0.4-1,0-1.4l3.1-3.1c-0.6-1-1-2.101-1.4-3.3H1.9c-0.6,0-1-0.5-1-1v-8.9c0-0.6,0.5-1,1-1  H6c0.3-1.2,0.8-2.4,1.4-3.5l-2.9-2.9c-0.4-0.4-0.4-1,0-1.4l6.3-6.3c0.4-0.4,1.1-0.4,1.4,0L15,7.3c1.1-0.6,2.3-1.1,3.6-1.5V1.9  c0-0.6,0.5-1,1-1h8.9c0.6,0,1,0.5,1,1v3.9c1.2,0.4,2.4,0.9,3.6,1.5L35.9,4.5C36.3,4.1,37,4.1,37.3,4.5l6.3,6.3c0.4,0.4,0.4,1,0,1.4  L40.7,15.1c0.6,1.1,1,2.3,1.399,3.5h4.2c0.601,0,1,0.5,1,1v8.9c0,0.6-0.5,1-1,1H42c-0.4,1.1-0.8,2.2-1.4,3.3L43.7,35.9  C43.9,36.1,44,36.3,44,36.6c0,0.301-0.1,0.5-0.3,0.7l-6.3,6.3c-0.4,0.4-1,0.4-1.4,0L32.8,40.4c-1,0.5-2.1,1-3.2,1.3v4.5  C29.4,46.7,29,47.1,28.4,47.1z M20.6,45.1h6.8v-4.3c0-0.5,0.3-0.899,0.8-1c1.5-0.399,2.8-0.899,4.1-1.7c0.4-0.199,0.9-0.199,1.2,0.2  l3,3l4.8-4.8L38.4,33.6C38.1,33.3,38,32.8,38.3,32.4c0.8-1.301,1.4-2.7,1.8-4.2c0.101-0.4,0.5-0.7,1-0.7H45.2v-6.8h-3.9  c-0.5,0-0.899-0.3-1-0.8c-0.399-1.6-1-3-1.7-4.4c-0.199-0.4-0.199-0.9,0.2-1.2l2.7-2.7l-4.8-4.8L34.1,9.4  c-0.3,0.3-0.8,0.4-1.199,0.1C31.5,8.7,30,8,28.4,7.6C28,7.5,27.6,7.1,27.6,6.6V2.9h-6.8v3.7c0,0.5-0.3,0.9-0.8,1  c-1.6,0.4-3.1,1-4.5,1.9c-0.4,0.2-0.9,0.2-1.2-0.1l-2.6-2.6l-4.8,4.8l2.7,2.7c0.3,0.3,0.4,0.8,0.2,1.2c-0.8,1.4-1.4,2.8-1.7,4.4  c-0.1,0.5-0.5,0.8-1,0.8H2.9v6.8H7c0.5,0,0.9,0.3,1,0.7c0.4,1.5,1,2.899,1.8,4.2C10,32.8,10,33.3,9.7,33.6l-2.9,2.9l4.8,4.8l3-3  c0.3-0.3,0.8-0.399,1.2-0.2c1.3,0.7,2.7,1.301,4.1,1.7c0.4,0.101,0.8,0.5,0.8,1v4.3H20.6z M24,33c-5,0-9-4-9-9s4-9,9-9s9,4,9,9  S29,33,24,33z M24,17c-3.8,0-7,3.1-7,7c0,3.8,3.1,7,7,7c3.8,0,7-3.1,7-7C31,20.2,27.8,17,24,17z"></path></svg>