<svg height='100px' width='100px'  fill="#ff4d00" xmlns:dc="http://purl.org/dc/elements/1.1/" xmlns:cc="http://creativecommons.org/ns#" xmlns:rdf="http://www.w3.org/1999/02/22-rdf-syntax-ns#" xmlns:svg="http://www.w3.org/2000/svg" xmlns="http://www.w3.org/2000/svg" version="1.1" viewBox="0 0 47.999997 48" x="0px" y="0px"><path style="color:#000000;font-style:normal;font-variant:normal;font-weight:normal;font-stretch:normal;font-size:medium;line-height:normal;font-family:sans-serif;text-indent:0;text-align:start;text-decoration:none;text-decoration-line:none;text-decoration-style:solid;text-decoration-color:#000000;letter-spacing:normal;word-spacing:normal;text-transform:none;direction:ltr;block-progression:tb;writing-mode:lr-tb;baseline-shift:baseline;text-anchor:start;white-space:normal;clip-rule:nonzero;display:inline;overflow:visible;visibility:visible;opacity:1;isolation:auto;mix-blend-mode:normal;color-interpolation:sRGB;color-interpolation-filters:linearRGB;solid-color:#000000;solid-opacity:1;fill:#ff4d00;fill-opacity:1;fill-rule:nonzero;stroke:none;stroke-width:2;stroke-linecap:butt;stroke-linejoin:round;stroke-miterlimit:4;stroke-dasharray:none;stroke-dashoffset:0;stroke-opacity:1;marker:none;color-rendering:auto;image-rendering:auto;shape-rendering:auto;text-rendering:auto;enable-background:accumulate" d="m 23.999998,0.0039108 c -3.635,0 -7.27087,1.3132897 -10.13477,3.9374997 C 8.2508277,9.08609 7.4168377,17.61545 11.839838,23.755861 c 2.0585,2.65139 3.16016,5.90504 3.16016,9.24414 0,0.79526 0.31661,1.55876 0.87891,2.12109 0.31837,0.3184 0.70447,0.54735 1.12109,0.69532 l 0,5.18359 c 0.0508,2.44353 1.3778,4.83696 3.5,6.0625 2.1644,1.24988 4.8356,1.24988 7,0 2.1143,-1.22093 3.4398,-3.62962 3.5,-6.0625 l 0,-5.18359 c 0.4166,-0.14797 0.8027,-0.37692 1.1211,-0.69532 0.5621,-0.56228 0.8789,-1.32583 0.8789,-2.12109 0,-3.3391 1.1134,-6.58494 3.1719,-9.23633 4.423,-6.140411 3.5773,-14.677581 -2.0371,-19.8222605 -2.8639,-2.62421 -6.4998,-3.9374997 -10.1348,-3.9374997 z m 0,1.9921797 c 3.1475,0 6.2951,1.13997 8.7832,3.41993 4.9763,4.5598995 5.6402,12.1432895 1.5313,17.4980405 -2.1482,2.92863 -3.3145,6.45817 -3.3145,10.08594 0,0.2656 -0.1052,0.51922 -0.293,0.70703 -0.1743,0.17436 -0.4623,0.27909 -0.707,0.29297 -0.023,-10e-4 -11.98634,-9.3e-4 -12,0 -0.244,-0.0143 -0.53315,-0.11907 -0.70703,-0.29297 -0.1878,-0.18781 -0.29297,-0.44143 -0.29297,-0.70703 0,-3.62777 -1.17417,-7.15131 -3.32227,-10.08008 -4.1088,-5.354751 -3.43723,-12.944001 1.53907,-17.5039005 2.4881,-2.27996 5.6357,-3.41993 8.7832,-3.41993 z m -5,34.0039105 10,0 0,5 c -7e-4,1.78765 -0.9523,3.43629 -2.5,4.33008 -1.5483,0.89412 -3.4517,0.89412 -5,0 -1.5477,-0.89379 -2.4993,-2.54438 -2.5,-4.33203 z"></path></svg>