<svg height='100px' width='100px'  fill="#ff4d00" xmlns="http://www.w3.org/2000/svg" xmlns:xlink="http://www.w3.org/1999/xlink" version="1.1" x="0px" y="0px" viewBox="0 0 512 512" style="enable-background:new 0 0 512 512;" xml:space="preserve"><g><path d="M405.390625,177.2214203c-3.8662109,0-7,3.1337891-7,7v250.3222504   c0,16.4443359-13.3789062,29.8227539-29.8232422,29.8227539H97.8232422C81.3789062,464.3664246,68,450.9880066,68,434.5436707   V119.2419205c0-16.4443359,13.3789062-29.8227539,29.8232422-29.8227539h205.7646484c3.8662109,0,7-3.1342773,7-7   c0-3.8662109-3.1337891-7-7-7H97.8232422C73.6591797,75.4191666,54,95.077858,54,119.2419205v315.3017578   c0,24.1640625,19.6591797,43.8227539,43.8232422,43.8227539h270.7441406c24.1640625,0,43.8232422-19.6586914,43.8232422-43.8227539   V184.2214203C412.390625,180.3552094,409.2568359,177.2214203,405.390625,177.2214203z"></path><path d="M447.6777344,43.9689713c-13.4934082-13.4919415-35.2617188-13.772459-49.1096191-0.8535156   c-0.3356934,0.2336426-0.6584473,0.4941406-0.9577637,0.793457c-0.2487793,0.2487793-0.467041,0.5158691-0.6706543,0.7902832   L198.4707031,243.1691742c-0.199707,0.1998291-0.3803711,0.4111328-0.5510254,0.6278076   c-0.0439453,0.0559082-0.0839844,0.1143799-0.1262207,0.1716309c-0.1296387,0.175415-0.2504883,0.3546143-0.3615723,0.5388184   c-0.0361328,0.0599365-0.0722656,0.1195068-0.1066895,0.1807861c-0.1293945,0.2297363-0.2475586,0.4639893-0.3491211,0.7041016   c-0.0063477,0.0151367-0.0141602,0.0290527-0.0205078,0.0441895c-0.1103516,0.2663574-0.2009277,0.5383301-0.2768555,0.8138428   c-0.0056152,0.0194092-0.0141602,0.0374756-0.0195312,0.0570068l-14.6806641,54.7866058   c-0.6474609,2.4155273,0.0439453,4.9931641,1.8115234,6.7617188c1.3300781,1.3300781,3.1181641,2.050293,4.9501953,2.050293   c0.6044922,0,1.2128906-0.078125,1.8115234-0.2387695l54.7871094-14.6796875   c0.0180664-0.0048828,0.0349121-0.0130615,0.0529785-0.0180664c0.2785645-0.0766602,0.5534668-0.1682129,0.8227539-0.2800293   c0.0068359-0.0029297,0.0131836-0.0064697,0.0202637-0.0092773c0.2495117-0.1046143,0.4924316-0.2277832,0.730957-0.3625488   c0.0554199-0.03125,0.1091309-0.0638428,0.1635742-0.0964355c0.192627-0.1159668,0.380127-0.2419434,0.5632324-0.3779297   c0.0500488-0.0371094,0.1010742-0.0718994,0.1499023-0.1101074c0.2194824-0.1723633,0.4335938-0.3548584,0.6359863-0.5571289   l199.1982422-199.199707C454.3339844,87.3195572,458,78.4396744,458,68.9723892S454.3339844,50.6252213,447.6777344,43.9689713z    M437.7783203,53.8683853C441.7900391,57.8810806,444,63.2448502,444,68.9723892   c0,3.2849121-0.7495117,6.4399414-2.1264648,9.2993164l-28.5029297-28.5029297   C421.3276367,45.9240494,431.1850586,47.275856,437.7783203,53.8683853z M243.5280762,278.3266296l-30.2072754-30.2077484   L402.6201172,58.8180923l30.2077637,30.2077637L243.5280762,278.3266296z M198.6396484,293.006073l8.4052734-31.3642578   l22.9599609,22.9604492L198.6396484,293.006073z"></path></g></svg>