<svg height='100px' width='100px'  fill="#ff4d00" xmlns:rdf="http://www.w3.org/1999/02/22-rdf-syntax-ns#" xmlns="http://www.w3.org/2000/svg" xmlns:cc="http://creativecommons.org/ns#" xmlns:dc="http://purl.org/dc/elements/1.1/" version="1.1" x="0px" y="0px" viewBox="0 0 100 100"><g transform="translate(0,-952.36218)"><path style="baseline-shift:baseline;block-progression:tb;color:#000000;direction:ltr;text-indent:0;enable-background:accumulate;text-transform:none;" fill="#ff4d00" d="m49.984,961.52c-2.191,0-4.2433,1.2042-5.3438,3.0938l-40.312,69.39c-1.1007,1.8949-1.1036,4.2631,0,6.1563s3.1794,3.0993,5.375,3.0937h80.594c2.1956,0.01,4.2715-1.2005,5.375-3.0937s1.1006-4.2614,0-6.1563l-40.312-69.344c-1.1005-1.8896-3.184-3.0938-5.375-3.0938zm0,2.3125c1.329,0,2.7125,0.79996,3.375,1.9375l40.312,69.344c0.66249,1.1405,0.66423,2.7042,0,3.8437-0.66423,1.1396-2.0434,1.9409-3.375,1.9375h-80.594c-1.3316,0-2.7108-0.7979-3.375-1.9375-0.66425-1.1395-0.6625-2.7032,0-3.8437l40.282-69.33c0.66249-1.1375,2.046-1.9375,3.375-1.9375zm0,24.438a1.1501,1.1501,0,0,0,-0.25,0.0312,1.1501,1.1501,0,0,0,-0.875,1.1562v31.031a1.1501,1.1501,0,1,0,2.2812,0v-31.031a1.1501,1.1501,0,0,0,-1.1562,-1.1875zm0.03125,38c-1.8648,0-3.4688,1.5099-3.4688,3.375,0,1.865,1.6039,3.375,3.4688,3.375s3.4062-1.51,3.4062-3.375c0-1.8651-1.5413-3.375-3.4062-3.375zm0,2.3125c0.64531,0,1.125,0.4643,1.125,1.0625,0,0.5981-0.47969,1.0938-1.125,1.0938-0.64521,0-1.125-0.4957-1.125-1.0938,0-0.5982,0.47979-1.0625,1.125-1.0625z"></path></g></svg>