<?xml version="1.0" encoding="utf-8"?>
<!-- Generator: Adobe Illustrator 15.1.0, SVG Export Plug-In  -->
<!DOCTYPE svg PUBLIC "-//W3C//DTD SVG 1.1//EN" "http://www.w3.org/Graphics/SVG/1.1/DTD/svg11.dtd" [
	<!ENTITY ns_flows "http://ns.adobe.com/Flows/1.0/">
]>
<svg version="1.1"
	 xmlns="http://www.w3.org/2000/svg" xmlns:xlink="http://www.w3.org/1999/xlink" xmlns:a="http://ns.adobe.com/AdobeSVGViewerExtensions/3.0/"
	 x="0px" y="0px" width="268px" height="251px" viewBox="-45.985 -63.457 268 251"
	 overflow="visible" enable-background="new -45.985 -63.457 268 251" xml:space="preserve">
<defs>
</defs>
<path fill="#F89E59" d="M173.912,78.877l-24.686-50.984l-30.438,62.865l5.904,12.193c9.929,20.508,39.142,20.506,49.068-0.002
	l0.151-0.312C177.546,95.133,177.545,86.379,173.912,78.877"/>
<path fill="#E36235" d="M143.101,15.24c-9.839-20.32-38.784-20.32-48.623,0l-6.126,12.652l30.438,62.865l30.438-62.865
	L143.101,15.24z"/>
<path fill="#E87D1E" d="M2.667,79.129c-3.608,7.455-3.553,16.16,0.15,23.568c10.231,20.463,39.497,20.275,49.468-0.316l5.628-11.623
	L27.475,27.893L2.667,79.129z"/>
<path fill="#B7442F" d="M57.913,90.758l5.61,11.588c10.047,20.75,39.607,20.75,49.655,0l5.61-11.588L88.352,27.893L57.913,90.758z"
	/>
<path fill="#A84D10" d="M82.225,15.24c-9.84-20.32-38.784-20.32-48.623,0l-6.127,12.652l30.438,62.865l30.438-62.865L82.225,15.24z"
	/>
</svg>
