<?xml version="1.0" encoding="utf-8"?>
<!-- Generator: Adobe Illustrator 15.1.0, SVG Export Plug-In  -->
<!DOCTYPE svg PUBLIC "-//W3C//DTD SVG 1.1//EN" "http://www.w3.org/Graphics/SVG/1.1/DTD/svg11.dtd" [
	<!ENTITY ns_flows "http://ns.adobe.com/Flows/1.0/">
]>
<svg version="1.1"
	 xmlns="http://www.w3.org/2000/svg" xmlns:xlink="http://www.w3.org/1999/xlink" xmlns:a="http://ns.adobe.com/AdobeSVGViewerExtensions/3.0/"
	 x="0px" y="0px" width="266px" height="251px" viewBox="-45.745 -63.278 266 251"
	 overflow="visible" enable-background="new -45.745 -63.278 266 251" xml:space="preserve">
<defs>
</defs>
<path fill="#C8DF8E" d="M173.914,78.875l-24.686-50.982l-30.438,62.865l5.904,12.193c9.928,20.508,39.141,20.506,49.068-0.002
	l0.15-0.312C177.546,95.133,177.546,86.381,173.914,78.875"/>
<path fill="#A0CF67" d="M143.101,15.239c-9.838-20.318-38.783-20.318-48.623,0l-6.127,12.654l30.439,62.865l30.438-62.865
	L143.101,15.239z"/>
<path fill="#6CB33F" d="M2.667,79.129c-3.609,7.453-3.553,16.16,0.15,23.568c10.232,20.463,39.498,20.275,49.469-0.316l5.627-11.623
	L27.476,27.893L2.667,79.129z"/>
<path fill="#5E9732" d="M57.914,90.758l5.609,11.588c10.049,20.75,39.609,20.75,49.656,0l5.611-11.588L88.351,27.893L57.914,90.758z
	"/>
<path fill="#387C2B" d="M82.226,15.239c-9.84-20.318-38.785-20.318-48.623,0l-6.127,12.654l30.438,62.865l30.439-62.865
	L82.226,15.239z"/>
</svg>
