<?xml version="1.0" encoding="utf-8"?>
<!-- Generator: Adobe Illustrator 15.1.0, SVG Export Plug-In  -->
<!DOCTYPE svg PUBLIC "-//W3C//DTD SVG 1.1//EN" "http://www.w3.org/Graphics/SVG/1.1/DTD/svg11.dtd" [
	<!ENTITY ns_flows "http://ns.adobe.com/Flows/1.0/">
]>
<svg version="1.1"
	 xmlns="http://www.w3.org/2000/svg" xmlns:xlink="http://www.w3.org/1999/xlink" xmlns:a="http://ns.adobe.com/AdobeSVGViewerExtensions/3.0/"
	 x="0px" y="0px" width="603px" height="251px" viewBox="-45.745 -63.278 603 251"
	 overflow="visible" enable-background="new -45.745 -63.278 603 251" xml:space="preserve">
<defs>
</defs>
<path fill="#C8DF8E" d="M173.914,78.875l-24.686-50.982l-30.438,62.865l5.904,12.193c9.928,20.508,39.141,20.506,49.068-0.002
	l0.15-0.312C177.546,95.133,177.546,86.381,173.914,78.875"/>
<path fill="#A0CF67" d="M143.101,15.239c-9.838-20.318-38.783-20.318-48.623,0l-6.127,12.654l30.439,62.865l30.438-62.865
	L143.101,15.239z"/>
<path fill="#6CB33F" d="M2.667,79.129c-3.609,7.453-3.553,16.16,0.15,23.568c10.232,20.463,39.498,20.275,49.469-0.316l5.627-11.623
	L27.476,27.893L2.667,79.129z"/>
<path fill="#5E9732" d="M57.914,90.758l5.609,11.588c10.049,20.75,39.609,20.75,49.656,0l5.611-11.588L88.351,27.893L57.914,90.758z
	"/>
<path fill="#387C2B" d="M82.226,15.239c-9.84-20.318-38.785-20.318-48.623,0l-6.127,12.654l30.438,62.865l30.439-62.865
	L82.226,15.239z"/>
<path fill="#7E8083" d="M257.743,65.792h-4.946V12.015l-19.789,39.944h-4.947l-20.155-39.944v53.777h-4.947V0.564h4.947
	l22.721,45.623l22.17-45.623h4.946V65.792z"/>
<path fill="#7E8083" d="M321.604,65.792h-5.313l-5.681-15.849h-30.415l-5.681,15.849H269.2l24.003-65.229h4.397L321.604,65.792z
	 M281.752,45.546h27.301L295.402,7.16L281.752,45.546z"/>
<path fill="#7E8083" d="M380.606,65.792h-4.947L338.006,9.175v56.617h-4.947V0.564h4.947l37.653,56.617V0.564h4.947V65.792z"/>
<path fill="#7E8083" d="M442.817,19.07h-4.947c-1.924-9.07-8.52-14.658-17.314-14.658c-4.764,0-8.979,1.649-12.368,5.039
	c-4.672,4.672-5.039,9.985-5.039,23.728s0.367,19.056,5.039,23.728c3.39,3.391,7.604,5.039,12.368,5.039
	c5.13,0,10.169-2.198,13.559-6.321c2.84-3.573,3.939-7.329,3.939-12.917v-5.863h-17.498v-4.397h22.445v10.627
	c0,6.871-1.466,11.451-5.313,15.758c-4.215,4.672-10.536,7.512-17.132,7.512c-6.505,0-12.002-2.382-15.85-6.229
	c-6.046-6.047-6.504-11.085-6.504-26.935s0.458-20.888,6.504-26.935c3.848-3.848,9.345-6.229,15.85-6.229
	C431.916,0.014,440.894,7.618,442.817,19.07z"/>
<path fill="#7E8083" d="M495.132,6.244c6.047,6.047,6.505,11.085,6.505,26.935s-0.458,20.888-6.505,26.935
	c-3.848,3.848-9.344,6.229-15.849,6.229s-12.002-2.382-15.85-6.229c-6.046-6.047-6.504-11.085-6.504-26.935
	s0.458-20.888,6.504-26.935c3.848-3.848,9.345-6.229,15.85-6.229S491.284,2.396,495.132,6.244z M466.915,9.451
	c-4.672,4.672-5.038,9.985-5.038,23.728s0.366,19.056,5.038,23.728c3.39,3.391,7.604,5.039,12.368,5.039s8.979-1.648,12.368-5.039
	c4.672-4.672,5.038-9.985,5.038-23.728s-0.366-19.056-5.038-23.728c-3.39-3.39-7.604-5.039-12.368-5.039
	S470.305,6.061,466.915,9.451z"/>
<path fill="#7E8083" d="M216.22,81.266h1.326l13.412,36.309h-1.428l-3.57-9.639h-18.103l-3.519,9.639h-1.428L216.22,81.266z
	 M225.501,106.662l-8.618-23.458l-8.567,23.458H225.501z"/>
<path fill="#7E8083" d="M244.271,81.266h1.428l23.151,33.911V81.266h1.428v36.309h-1.428l-23.151-33.912v33.912h-1.428V81.266z"/>
<path fill="#7E8083" d="M296.901,81.266h1.325l13.412,36.309h-1.428l-3.569-9.639h-18.104l-3.519,9.639h-1.428L296.901,81.266z
	 M306.183,106.662l-8.618-23.458l-8.567,23.458H306.183z"/>
<path fill="#7E8083" d="M324.952,81.266h1.428v34.982h20.041v1.326h-21.469V81.266z"/>
<path fill="#7E8083" d="M362.182,102.48l-11.168-21.214h1.581l10.353,19.786l10.352-19.786h1.479l-11.168,21.214v15.095h-1.428
	V102.48z"/>
<path fill="#7E8083" d="M395.178,82.592h-11.219v-1.326h23.865v1.326h-11.219v34.982h-1.428V82.592z"/>
<path fill="#7E8083" d="M421.8,81.266h1.428v36.309H421.8V81.266z"/>
<path fill="#7E8083" d="M443.628,114.515c-3.11-3.111-3.569-6.681-3.569-15.095s0.459-11.984,3.569-15.095
	c2.244-2.244,4.896-3.365,8.517-3.365c6.476,0,10.861,4.13,12.034,10.352h-1.428c-1.173-5.711-5.304-9.026-10.606-9.026
	c-3.111,0-5.559,1.021-7.496,2.958c-2.652,2.651-3.162,6.323-3.162,14.177s0.51,11.524,3.162,14.177
	c1.938,1.938,4.385,2.957,7.496,2.957c5.303,0,9.434-3.314,10.606-9.025h1.428c-1.173,6.221-5.559,10.352-12.034,10.352
	C448.523,117.88,445.872,116.758,443.628,114.515z"/>
<path fill="#7E8083" d="M477.492,113.24l1.071-1.07c3.009,3.11,6.222,4.385,10.913,4.385c6.425,0,10.556-3.009,10.556-8.363
	c0-2.447-0.765-4.538-2.346-5.762c-1.53-1.224-3.314-1.836-6.119-2.295l-4.437-0.714c-2.55-0.408-4.182-0.969-5.967-2.396
	c-1.632-1.326-2.702-3.468-2.702-6.527c0-5.813,4.437-9.536,11.27-9.536c4.437,0,7.292,1.224,10.301,3.824l-1.02,1.02
	c-2.499-2.243-5.253-3.519-9.332-3.519c-5.916,0-9.791,3.06-9.791,8.159c0,2.448,0.815,4.335,2.243,5.508
	c1.326,1.122,3.264,1.785,5.559,2.142l4.437,0.714c3.009,0.459,4.794,1.122,6.527,2.55c1.887,1.53,2.805,3.927,2.805,6.782
	c0,5.967-4.538,9.74-12.034,9.74C484.122,117.88,480.756,116.503,477.492,113.24z"/>
</svg>
