<?xml version="1.0" encoding="utf-8"?>
<!-- Generator: Adobe Illustrator 15.1.0, SVG Export Plug-In  -->
<!DOCTYPE svg PUBLIC "-//W3C//DTD SVG 1.1//EN" "http://www.w3.org/Graphics/SVG/1.1/DTD/svg11.dtd" [
	<!ENTITY ns_flows "http://ns.adobe.com/Flows/1.0/">
]>
<svg version="1.1"
	 xmlns="http://www.w3.org/2000/svg" xmlns:xlink="http://www.w3.org/1999/xlink" xmlns:a="http://ns.adobe.com/AdobeSVGViewerExtensions/3.0/"
	 x="0px" y="0px" width="603px" height="251px" viewBox="-45.985 -62.471 603 251"
	 overflow="visible" enable-background="new -45.985 -62.471 603 251" xml:space="preserve">
<defs>
</defs>
<path fill="#F89E59" d="M173.912,79.863l-24.686-50.984l-30.438,62.865l5.904,12.193c9.929,20.508,39.142,20.506,49.068-0.002
	l0.151-0.312C177.546,96.119,177.545,87.365,173.912,79.863"/>
<path fill="#E36235" d="M143.101,16.226c-9.839-20.32-38.784-20.32-48.623,0l-6.126,12.652l30.438,62.865l30.438-62.865
	L143.101,16.226z"/>
<path fill="#E87D1E" d="M2.667,80.115c-3.608,7.455-3.553,16.16,0.15,23.568c10.231,20.463,39.497,20.275,49.468-0.316l5.628-11.623
	L27.475,28.878L2.667,80.115z"/>
<path fill="#B7442F" d="M57.913,91.744l5.61,11.588c10.047,20.75,39.607,20.75,49.655,0l5.61-11.588L88.352,28.878L57.913,91.744z"
	/>
<path fill="#A84D10" d="M82.225,16.226c-9.84-20.32-38.784-20.32-48.623,0l-6.127,12.652l30.438,62.865l30.438-62.865L82.225,16.226
	z"/>
<path fill="#7E8083" d="M255.503,65.779h-4.946V12.001l-19.789,39.944h-4.947l-20.155-39.944v53.777h-4.947V0.55h4.947
	l22.721,45.624l22.17-45.624h4.946V65.779z"/>
<path fill="#7E8083" d="M319.364,65.779h-5.313L308.37,49.93h-30.415l-5.681,15.849h-5.313L290.963,0.55h4.397L319.364,65.779z
	 M279.512,45.532h27.301l-13.65-38.386L279.512,45.532z"/>
<path fill="#7E8083" d="M378.367,65.779h-4.947L335.766,9.162v56.617h-4.947V0.55h4.947l37.653,56.617V0.55h4.947V65.779z"/>
<path fill="#7E8083" d="M440.578,19.056h-4.947c-1.924-9.07-8.52-14.658-17.314-14.658c-4.764,0-8.979,1.649-12.368,5.039
	c-4.672,4.672-5.039,9.986-5.039,23.728c0,13.742,0.367,19.056,5.039,23.728c3.39,3.39,7.604,5.039,12.368,5.039
	c5.13,0,10.169-2.199,13.559-6.321c2.84-3.573,3.939-7.329,3.939-12.917v-5.863h-17.498v-4.397h22.445v10.627
	c0,6.871-1.466,11.452-5.313,15.758c-4.215,4.671-10.536,7.512-17.132,7.512c-6.505,0-12.002-2.382-15.85-6.23
	c-6.046-6.046-6.504-11.085-6.504-26.935c0-15.849,0.458-20.888,6.504-26.934c3.848-3.848,9.345-6.23,15.85-6.23
	C429.676,0,438.654,7.604,440.578,19.056z"/>
<path fill="#7E8083" d="M492.892,6.23c6.047,6.046,6.505,11.085,6.505,26.934c0,15.85-0.458,20.888-6.505,26.935
	c-3.848,3.848-9.344,6.23-15.849,6.23s-12.002-2.382-15.85-6.23c-6.046-6.046-6.504-11.085-6.504-26.935
	c0-15.849,0.458-20.888,6.504-26.934c3.848-3.848,9.345-6.23,15.85-6.23S489.044,2.382,492.892,6.23z M464.675,9.437
	c-4.672,4.672-5.038,9.986-5.038,23.728c0,13.742,0.366,19.056,5.038,23.728c3.39,3.39,7.604,5.039,12.368,5.039
	s8.979-1.649,12.368-5.039c4.672-4.672,5.038-9.986,5.038-23.728c0-13.742-0.366-19.056-5.038-23.728
	c-3.39-3.39-7.604-5.039-12.368-5.039S468.065,6.047,464.675,9.437z"/>
<path fill="#7E8083" d="M201.456,115.226l1.071-1.07c3.009,3.11,6.221,4.385,10.913,4.385c6.425,0,10.556-3.008,10.556-8.363
	c0-2.447-0.765-4.537-2.346-5.762c-1.53-1.224-3.314-1.836-6.119-2.295l-4.437-0.714c-2.549-0.407-4.181-0.969-5.966-2.396
	c-1.632-1.326-2.703-3.468-2.703-6.527c0-5.813,4.437-9.536,11.27-9.536c4.437,0,7.292,1.224,10.301,3.824l-1.02,1.02
	c-2.499-2.243-5.252-3.518-9.332-3.518c-5.915,0-9.791,3.059-9.791,8.158c0,2.448,0.816,4.335,2.244,5.508
	c1.326,1.122,3.264,1.785,5.558,2.143l4.437,0.713c3.009,0.459,4.793,1.123,6.527,2.551c1.887,1.529,2.805,3.926,2.805,6.781
	c0,5.967-4.539,9.74-12.035,9.74C208.085,119.867,204.719,118.49,201.456,115.226z"/>
<path fill="#7E8083" d="M241.438,116.501c-3.11-3.111-3.569-6.681-3.569-15.095s0.459-11.983,3.569-15.095
	c2.244-2.244,4.896-3.365,8.516-3.365c3.621,0,6.272,1.121,8.516,3.365c3.11,3.111,3.569,6.681,3.569,15.095
	s-0.459,11.983-3.569,15.095c-2.244,2.244-4.896,3.365-8.516,3.365C246.334,119.867,243.682,118.746,241.438,116.501z
	 M257.45,115.583c2.652-2.652,3.162-6.323,3.162-14.177c0-7.853-0.51-11.524-3.162-14.177c-1.938-1.938-4.385-2.957-7.496-2.957
	c-3.11,0-5.558,1.02-7.496,2.957c-2.652,2.652-3.162,6.324-3.162,14.177c0,7.854,0.51,11.524,3.162,14.177
	c1.938,1.938,4.386,2.957,7.496,2.957C253.065,118.541,255.512,117.521,257.45,115.583z"/>
<path fill="#7E8083" d="M277.239,83.253h1.428v34.982h20.041v1.325h-21.469V83.253z"/>
<path fill="#7E8083" d="M308.399,108.087V83.253h1.428v24.477c0,6.477,4.232,10.811,10.709,10.811s10.709-4.334,10.709-10.811
	V83.253h1.428v24.834c0,6.782-4.844,11.779-12.137,11.779C313.244,119.867,308.399,114.87,308.399,108.087z"/>
<path fill="#7E8083" d="M355.778,84.579h-11.219v-1.325h23.865v1.325h-11.219v34.982h-1.428V84.579z"/>
<path fill="#7E8083" d="M380.768,83.253h1.428v36.308h-1.428V83.253z"/>
<path fill="#7E8083" d="M400.963,116.501c-3.11-3.111-3.569-6.681-3.569-15.095s0.459-11.983,3.569-15.095
	c2.244-2.244,4.896-3.365,8.517-3.365c3.62,0,6.272,1.121,8.516,3.365c3.111,3.111,3.569,6.681,3.569,15.095
	s-0.458,11.983-3.569,15.095c-2.243,2.244-4.896,3.365-8.516,3.365C405.859,119.867,403.208,118.746,400.963,116.501z
	 M416.976,115.583c2.651-2.652,3.161-6.323,3.161-14.177c0-7.853-0.51-11.524-3.161-14.177c-1.938-1.938-4.386-2.957-7.496-2.957
	c-3.111,0-5.559,1.02-7.497,2.957c-2.651,2.652-3.161,6.324-3.161,14.177c0,7.854,0.51,11.524,3.161,14.177
	c1.938,1.938,4.386,2.957,7.497,2.957C412.59,118.541,415.038,117.521,416.976,115.583z"/>
<path fill="#7E8083" d="M436.765,83.253h1.428l23.152,33.91v-33.91h1.428v36.308h-1.428L438.193,85.65v33.911h-1.428V83.253z"/>
<path fill="#7E8083" d="M476.239,115.226l1.071-1.07c3.009,3.11,6.222,4.385,10.913,4.385c6.425,0,10.556-3.008,10.556-8.363
	c0-2.447-0.765-4.537-2.346-5.762c-1.53-1.224-3.314-1.836-6.119-2.295l-4.437-0.714c-2.55-0.407-4.182-0.969-5.967-2.396
	c-1.632-1.326-2.702-3.468-2.702-6.527c0-5.813,4.437-9.536,11.27-9.536c4.437,0,7.292,1.224,10.301,3.824l-1.02,1.02
	c-2.499-2.243-5.253-3.518-9.332-3.518c-5.916,0-9.791,3.059-9.791,8.158c0,2.448,0.815,4.335,2.243,5.508
	c1.326,1.122,3.264,1.785,5.559,2.143l4.437,0.713c3.009,0.459,4.794,1.123,6.527,2.551c1.887,1.529,2.805,3.926,2.805,6.781
	c0,5.967-4.538,9.74-12.034,9.74C482.869,119.867,479.502,118.49,476.239,115.226z"/>
</svg>
