<?xml version="1.0" encoding="utf-8"?>
<!-- Generator: Adobe Illustrator 23.0.1, SVG Export Plug-In . SVG Version: 6.00 Build 0)  -->
<svg version="1.1" id="Layer_1" xmlns="http://www.w3.org/2000/svg" xmlns:xlink="http://www.w3.org/1999/xlink" x="0px" y="0px"
	 viewBox="0 0 303.97 78.61" style="enable-background:new 0 0 303.97 78.61;" xml:space="preserve">
<style type="text/css">
	.st0{fill:#F4991A;}
	.st1{fill:#EE751C;}
	.st2{fill:#FCC00D;}
	.st3{fill:#E9511E;}
	.st4{fill:#E52521;}
	.st5{fill:#848483;}
	.st6{fill:none;stroke:#848483;stroke-width:0.6945;stroke-miterlimit:10;}
</style>
<path class="st0" d="M105.94,51.62L91.41,21.61L73.49,58.62l3.48,7.18c5.85,12.07,23.04,12.07,28.89,0l0.09-0.18
	C108.08,61.19,108.08,56.04,105.94,51.62"/>
<path class="st1" d="M87.81,14.16c-5.79-11.96-22.83-11.96-28.62,0l-3.61,7.45l17.92,37.01l17.92-37.01L87.81,14.16z"/>
<path class="st2" d="M5.13,51.77c-2.12,4.39-2.09,9.51,0.09,13.87c6.02,12.05,23.25,11.94,29.12-0.19l3.31-6.84L19.74,21.61
	L5.13,51.77z"/>
<path class="st3" d="M37.66,58.62l3.3,6.82c5.91,12.21,23.32,12.21,29.23,0l3.3-6.82L55.58,21.61L37.66,58.62z"/>
<path class="st4" d="M51.97,14.16c-5.79-11.96-22.83-11.96-28.62,0l-3.61,7.45l17.92,37.01l17.92-37.01L51.97,14.16z"/>
<polygon class="st5" points="153.98,43.33 151.06,43.33 151.06,11.67 139.41,35.19 136.5,35.19 124.64,11.67 124.64,43.33 
	121.72,43.33 121.72,4.93 124.64,4.93 138.01,31.79 151.06,4.93 153.98,4.93 "/>
<path class="st5" d="M191.57,43.33h-3.13L185.1,34h-17.91l-3.34,9.33h-3.13l14.13-38.4h2.59L191.57,43.33z M168.11,31.41h16.07
	l-8.04-22.6L168.11,31.41z"/>
<polygon class="st5" points="226.3,43.33 223.39,43.33 201.22,10 201.22,43.33 198.31,43.33 198.31,4.93 201.22,4.93 223.39,38.26 
	223.39,4.93 226.3,4.93 "/>
<path class="st5" d="M262.93,15.83h-2.91c-1.13-5.34-5.02-8.63-10.19-8.63c-2.8,0-5.29,0.97-7.28,2.97
	c-2.75,2.75-2.97,5.88-2.97,13.97c0,8.09,0.22,11.22,2.97,13.97c2,2,4.48,2.97,7.28,2.97c3.02,0,5.99-1.29,7.98-3.72
	c1.67-2.1,2.32-4.31,2.32-7.6v-3.45h-10.3V23.7h13.21v6.26c0,4.04-0.86,6.74-3.13,9.28c-2.48,2.75-6.2,4.42-10.08,4.42
	c-3.83,0-7.07-1.4-9.33-3.67c-3.56-3.56-3.83-6.53-3.83-15.86c0-9.33,0.27-12.3,3.83-15.85c2.26-2.26,5.5-3.67,9.33-3.67
	C256.51,4.61,261.79,9.08,262.93,15.83"/>
<path class="st5" d="M293.72,8.28c3.56,3.56,3.83,6.53,3.83,15.86c0,9.33-0.27,12.3-3.83,15.86c-2.26,2.26-5.5,3.67-9.33,3.67
	c-3.83,0-7.06-1.4-9.33-3.67c-3.56-3.56-3.83-6.53-3.83-15.86c0-9.33,0.27-12.3,3.83-15.86c2.26-2.26,5.5-3.67,9.33-3.67
	C288.22,4.61,291.46,6.01,293.72,8.28 M277.11,10.16c-2.75,2.75-2.97,5.88-2.97,13.97c0,8.09,0.22,11.22,2.97,13.97
	c2,2,4.48,2.97,7.28,2.97c2.81,0,5.29-0.97,7.28-2.97c2.75-2.75,2.97-5.88,2.97-13.97c0-8.09-0.21-11.22-2.97-13.97
	c-2-2-4.48-2.97-7.28-2.97C281.59,7.2,279.11,8.17,277.11,10.16"/>
<path class="st5" d="M122.16,72.44l0.63-0.63c1.77,1.83,3.66,2.58,6.42,2.58c3.78,0,6.21-1.77,6.21-4.92c0-1.44-0.45-2.67-1.38-3.39
	c-0.9-0.72-1.95-1.08-3.6-1.35l-2.61-0.42c-1.5-0.24-2.46-0.57-3.51-1.41c-0.96-0.78-1.59-2.04-1.59-3.84
	c0-3.42,2.61-5.61,6.64-5.61c2.61,0,4.29,0.72,6.06,2.25l-0.6,0.6c-1.47-1.32-3.09-2.07-5.49-2.07c-3.48,0-5.76,1.8-5.76,4.8
	c0,1.44,0.48,2.55,1.32,3.24c0.78,0.66,1.92,1.05,3.27,1.26l2.61,0.42c1.77,0.27,2.82,0.66,3.84,1.5c1.11,0.9,1.65,2.31,1.65,3.99
	c0,3.51-2.67,5.73-7.08,5.73C126.06,75.17,124.08,74.36,122.16,72.44"/>
<path class="st6" d="M122.16,72.44l0.63-0.63c1.77,1.83,3.66,2.58,6.42,2.58c3.78,0,6.21-1.77,6.21-4.92c0-1.44-0.45-2.67-1.38-3.39
	c-0.9-0.72-1.95-1.08-3.6-1.35l-2.61-0.42c-1.5-0.24-2.46-0.57-3.51-1.41c-0.96-0.78-1.59-2.04-1.59-3.84
	c0-3.42,2.61-5.61,6.64-5.61c2.61,0,4.29,0.72,6.06,2.25l-0.6,0.6c-1.47-1.32-3.09-2.07-5.49-2.07c-3.48,0-5.76,1.8-5.76,4.8
	c0,1.44,0.48,2.55,1.32,3.24c0.78,0.66,1.92,1.05,3.27,1.26l2.61,0.42c1.77,0.27,2.82,0.66,3.84,1.5c1.11,0.9,1.65,2.31,1.65,3.99
	c0,3.51-2.67,5.73-7.08,5.73C126.06,75.17,124.08,74.36,122.16,72.44"/>
<path class="st5" d="M145.7,73.19c-1.83-1.83-2.1-3.93-2.1-8.89c0-4.95,0.27-7.05,2.1-8.89c1.32-1.32,2.88-1.98,5.01-1.98
	c2.13,0,3.69,0.66,5.01,1.98c1.83,1.83,2.1,3.93,2.1,8.89c0,4.95-0.27,7.05-2.1,8.89c-1.32,1.32-2.88,1.98-5.01,1.98
	C148.58,75.17,147.02,74.51,145.7,73.19 M155.12,72.65c1.56-1.56,1.86-3.72,1.86-8.35c0-4.62-0.3-6.78-1.86-8.35
	c-1.14-1.14-2.58-1.74-4.41-1.74c-1.83,0-3.27,0.6-4.41,1.74c-1.56,1.56-1.86,3.72-1.86,8.35c0,4.62,0.3,6.78,1.86,8.35
	c1.14,1.14,2.58,1.74,4.41,1.74C152.54,74.39,153.98,73.79,155.12,72.65"/>
<path class="st6" d="M145.7,73.19c-1.83-1.83-2.1-3.93-2.1-8.89c0-4.95,0.27-7.05,2.1-8.89c1.32-1.32,2.88-1.98,5.01-1.98
	c2.13,0,3.69,0.66,5.01,1.98c1.83,1.83,2.1,3.93,2.1,8.89c0,4.95-0.27,7.05-2.1,8.89c-1.32,1.32-2.88,1.98-5.01,1.98
	C148.58,75.17,147.02,74.51,145.7,73.19 M155.12,72.65c1.56-1.56,1.86-3.72,1.86-8.35c0-4.62-0.3-6.78-1.86-8.35
	c-1.14-1.14-2.58-1.74-4.41-1.74c-1.83,0-3.27,0.6-4.41,1.74c-1.56,1.56-1.86,3.72-1.86,8.35c0,4.62,0.3,6.78,1.86,8.35
	c1.14,1.14,2.58,1.74,4.41,1.74C152.54,74.39,153.98,73.79,155.12,72.65"/>
<polygon class="st5" points="166.77,53.62 167.61,53.62 167.61,74.21 179.41,74.21 179.41,74.99 166.77,74.99 "/>
<polygon class="st6" points="166.77,53.62 167.61,53.62 167.61,74.21 179.41,74.21 179.41,74.99 166.77,74.99 "/>
<path class="st5" d="M185.11,68.24V53.62h0.84v14.41c0,3.81,2.49,6.36,6.3,6.36c3.81,0,6.3-2.55,6.3-6.36V53.62h0.84v14.62
	c0,3.99-2.85,6.93-7.14,6.93C187.97,75.17,185.11,72.23,185.11,68.24"/>
<path class="st6" d="M185.11,68.24V53.62h0.84v14.41c0,3.81,2.49,6.36,6.3,6.36c3.81,0,6.3-2.55,6.3-6.36V53.62h0.84v14.62
	c0,3.99-2.85,6.93-7.14,6.93C187.97,75.17,185.11,72.23,185.11,68.24"/>
<polygon class="st5" points="213.01,54.4 206.4,54.4 206.4,53.62 220.45,53.62 220.45,54.4 213.85,54.4 213.85,74.99 213.01,74.99 
	"/>
<polygon class="st6" points="213.01,54.4 206.4,54.4 206.4,53.62 220.45,53.62 220.45,54.4 213.85,54.4 213.85,74.99 213.01,74.99 
	"/>
<rect x="227.72" y="53.62" class="st5" width="0.84" height="21.37"/>
<rect x="227.72" y="53.62" class="st6" width="0.84" height="21.37"/>
<path class="st5" d="M239.61,73.19c-1.83-1.83-2.1-3.93-2.1-8.89c0-4.95,0.27-7.05,2.1-8.89c1.32-1.32,2.88-1.98,5.01-1.98
	c2.13,0,3.69,0.66,5.01,1.98c1.83,1.83,2.1,3.93,2.1,8.89c0,4.95-0.27,7.05-2.1,8.89c-1.32,1.32-2.88,1.98-5.01,1.98
	C242.49,75.17,240.93,74.51,239.61,73.19 M249.03,72.65c1.56-1.56,1.86-3.72,1.86-8.35c0-4.62-0.3-6.78-1.86-8.35
	c-1.14-1.14-2.58-1.74-4.41-1.74c-1.83,0-3.27,0.6-4.41,1.74c-1.56,1.56-1.86,3.72-1.86,8.35c0,4.62,0.3,6.78,1.86,8.35
	c1.14,1.14,2.58,1.74,4.41,1.74C246.45,74.39,247.89,73.79,249.03,72.65"/>
<path class="st6" d="M239.61,73.19c-1.83-1.83-2.1-3.93-2.1-8.89c0-4.95,0.27-7.05,2.1-8.89c1.32-1.32,2.88-1.98,5.01-1.98
	c2.13,0,3.69,0.66,5.01,1.98c1.83,1.83,2.1,3.93,2.1,8.89c0,4.95-0.27,7.05-2.1,8.89c-1.32,1.32-2.88,1.98-5.01,1.98
	C242.49,75.17,240.93,74.51,239.61,73.19 M249.03,72.65c1.56-1.56,1.86-3.72,1.86-8.35c0-4.62-0.3-6.78-1.86-8.35
	c-1.14-1.14-2.58-1.74-4.41-1.74c-1.83,0-3.27,0.6-4.41,1.74c-1.56,1.56-1.86,3.72-1.86,8.35c0,4.62,0.3,6.78,1.86,8.35
	c1.14,1.14,2.58,1.74,4.41,1.74C246.45,74.39,247.89,73.79,249.03,72.65"/>
<polygon class="st5" points="260.68,53.62 261.52,53.62 275.15,73.58 275.15,53.62 275.99,53.62 275.99,74.99 275.15,74.99 
	261.52,55.03 261.52,74.99 260.68,74.99 "/>
<polygon class="st6" points="260.68,53.62 261.52,53.62 275.15,73.58 275.15,53.62 275.99,53.62 275.99,74.99 275.15,74.99 
	261.52,55.03 261.52,74.99 260.68,74.99 "/>
<path class="st5" d="M283.92,72.44l0.63-0.63c1.77,1.83,3.66,2.58,6.42,2.58c3.78,0,6.21-1.77,6.21-4.92c0-1.44-0.45-2.67-1.38-3.39
	c-0.9-0.72-1.95-1.08-3.6-1.35l-2.61-0.42c-1.5-0.24-2.46-0.57-3.51-1.41c-0.96-0.78-1.59-2.04-1.59-3.84
	c0-3.42,2.61-5.61,6.63-5.61c2.61,0,4.29,0.72,6.06,2.25l-0.6,0.6c-1.47-1.32-3.09-2.07-5.49-2.07c-3.48,0-5.76,1.8-5.76,4.8
	c0,1.44,0.48,2.55,1.32,3.24c0.78,0.66,1.92,1.05,3.27,1.26l2.61,0.42c1.77,0.27,2.82,0.66,3.84,1.5c1.11,0.9,1.65,2.31,1.65,3.99
	c0,3.51-2.67,5.73-7.08,5.73C287.82,75.17,285.84,74.36,283.92,72.44"/>
<path class="st6" d="M283.92,72.44l0.63-0.63c1.77,1.83,3.66,2.58,6.42,2.58c3.78,0,6.21-1.77,6.21-4.92c0-1.44-0.45-2.67-1.38-3.39
	c-0.9-0.72-1.95-1.08-3.6-1.35l-2.61-0.42c-1.5-0.24-2.46-0.57-3.51-1.41c-0.96-0.78-1.59-2.04-1.59-3.84
	c0-3.42,2.61-5.61,6.63-5.61c2.61,0,4.29,0.72,6.06,2.25l-0.6,0.6c-1.47-1.32-3.09-2.07-5.49-2.07c-3.48,0-5.76,1.8-5.76,4.8
	c0,1.44,0.48,2.55,1.32,3.24c0.78,0.66,1.92,1.05,3.27,1.26l2.61,0.42c1.77,0.27,2.82,0.66,3.84,1.5c1.11,0.9,1.65,2.31,1.65,3.99
	c0,3.51-2.67,5.73-7.08,5.73C287.82,75.17,285.84,74.36,283.92,72.44"/>
</svg>
